<svg id="Layer_1" data-name="Layer 1" xmlns="http://www.w3.org/2000/svg" viewBox="0 0 500 500"><defs><style>.cls-1{fill:#fff;}.cls-2,.cls-3{fill:none;stroke:#000;stroke-linecap:round;stroke-width:13px;}.cls-2{stroke-miterlimit:10;}.cls-3{stroke-linejoin:round;}</style></defs><path d="M439.1,401.16c-1.61-2.79-65.72-39.42-65.72-39.42s-47.17-54.91-53.88-58.84-59.65-21.76-59.65-21.76c-20.61-6.43-53.83-4.29-57.19-4.71,11.31-4,52.22-6.25,75,1.84,6.09-.92,12.1-1.75,15-1.92,7.19-.42,89.08-17.45,61.31-73.49S212.22,156.35,191.47,159,57.62,187,60.85,193.27c4.47,8.75,37.56,1.42,65.92-6.72s52.56-7,67.77-5.75c14.62,1.23,77-.32,94.17,24.44,4.58-2.29,10.4-6.38,13.2-11.73.51,2.93-3.26,11.23-11.34,14.85-22.53,9.24-31.18-3.23-93.34,6.16s-81.06,31.39-89.57,64.68c-6.23,24.35,23.32,66.39,45.63,78.06s112.79,14.16,134.35,17.4,68.95,8.24,76.85,7.78S429,412.56,434,413,440.7,404,439.1,401.16Z"/><path class="cls-1" d="M306.48,334.51c1.16,4.3,1.13,8.3-1.54,9.5s-6.32-1.1-8.14-5.14-1.08-8.19,1.53-9.51C301.35,327.85,305.24,329.93,306.48,334.51Z"/><path class="cls-1" d="M331.79,324.47c1.45,3.91.59,7.83-1.91,8.75s-4.84-1.91-7.14-5.42c-2.42-3.7-1.57-7.61,1.92-8.75C327.19,318.23,330.35,320.55,331.79,324.47Z"/><path d="M186.79,169.28c5.48-15.91,16.74-17,34.82-17s38.32-3.7,33.53,14.73-11.46,24-36.34,20.54S180,189.15,186.79,169.28Z"/><circle cx="303.9" cy="334.25" r="4.55"/><circle cx="329.12" cy="323.4" r="4.15"/><line class="cls-2" x1="313" y1="132" x2="350.5" y2="91.5"/><polyline class="cls-3" points="315.5 90.5 354.5 87.5 357.5 126.5"/><line class="cls-2" x1="379.5" y1="194.5" x2="414.5" y2="156.5"/><polyline class="cls-3" points="379.5 152.5 418.5 152.5 421.5 191.5"/></svg>